<?xml version="1.0" encoding="UTF-8" standalone="no"?>
<!-- Generator: Adobe Illustrator 19.1.0, SVG Export Plug-In . SVG Version: 6.00 Build 0)  -->

<svg
   xmlns:dc="http://purl.org/dc/elements/1.1/"
   xmlns:cc="http://creativecommons.org/ns#"
   xmlns:rdf="http://www.w3.org/1999/02/22-rdf-syntax-ns#"
   xmlns:svg="http://www.w3.org/2000/svg"
   xmlns="http://www.w3.org/2000/svg"
   xmlns:sodipodi="http://sodipodi.sourceforge.net/DTD/sodipodi-0.dtd"
   xmlns:inkscape="http://www.inkscape.org/namespaces/inkscape"
   version="1.1"
   x="0px"
   y="0px"
   viewBox="0 0 256 256"
   xml:space="preserve"
   id="svg1008"
   sodipodi:docname="microsoft-calendar.svg"
   width="256"
   height="256"
   inkscape:version="0.92.4 (5da689c313, 2019-01-14)"><metadata
   id="metadata1014"><rdf:RDF><cc:Work
       rdf:about=""><dc:format>image/svg+xml</dc:format><dc:type
         rdf:resource="http://purl.org/dc/dcmitype/StillImage" /><dc:title></dc:title></cc:Work></rdf:RDF></metadata><defs
   id="defs1012" /><sodipodi:namedview
   pagecolor="#ffffff"
   bordercolor="#666666"
   borderopacity="1"
   objecttolerance="10"
   gridtolerance="10"
   guidetolerance="10"
   inkscape:pageopacity="0"
   inkscape:pageshadow="2"
   inkscape:window-width="1920"
   inkscape:window-height="1016"
   id="namedview1010"
   showgrid="false"
   inkscape:zoom="0.78097851"
   inkscape:cx="-130.60539"
   inkscape:cy="67.863583"
   inkscape:window-x="0"
   inkscape:window-y="27"
   inkscape:window-maximized="1"
   inkscape:current-layer="svg1008" />
<style
   type="text/css"
   id="style962">
	.st0{fill:#77B3D4;}
	.st1{opacity:0.2;}
	.st2{fill:#231F20;}
	.st3{fill:#FFFFFF;}
	.st4{fill:#C75C5C;}
	.st5{fill:#4F5D73;}
	.st6{fill:#E0E0D1;}
</style>
<g
   id="Layer_1"
   transform="scale(4)">
	<g
   id="g966">
		<circle
   class="st0"
   cx="32"
   cy="32"
   r="32"
   id="circle964"
   style="fill:#77b3d4" />
	</g>
	<g
   id="g1004">
		<g
   class="st1"
   id="g970"
   style="opacity:0.2">
			<path
   class="st2"
   d="m 12,25 v 25 c 0,2.2 1.8,4 4,4 h 32 c 2.2,0 4,-1.8 4,-4 V 25 Z"
   id="path968"
   inkscape:connector-curvature="0"
   style="fill:#231f20" />
		</g>
		<g
   id="g974">
			<path
   class="st3"
   d="m 12,23 v 25 c 0,2.2 1.8,4 4,4 h 32 c 2.2,0 4,-1.8 4,-4 V 23 Z"
   id="path972"
   inkscape:connector-curvature="0"
   style="fill:#ffffff" />
		</g>
		<g
   class="st1"
   id="g978"
   style="opacity:0.2">
			<path
   class="st2"
   d="M 48,14 H 16 c -2.2,0 -4,1.8 -4,4 v 7 h 40 v -7 c 0,-2.2 -1.8,-4 -4,-4 z"
   id="path976"
   inkscape:connector-curvature="0"
   style="fill:#231f20" />
		</g>
		<g
   id="g982">
			<path
   class="st4"
   d="M 48,12 H 16 c -2.2,0 -4,1.8 -4,4 v 7 h 40 v -7 c 0,-2.2 -1.8,-4 -4,-4 z"
   id="path980"
   inkscape:connector-curvature="0"
   style="fill:#c75c5c" />
		</g>
		<g
   id="g986">
			<path
   class="st5"
   d="m 32,48 c -1.1,0 -2,-0.9 -2,-2 0,-5.5 1.8,-9.5 3.5,-12 H 27 c -1.1,0 -2,-0.9 -2,-2 0,-1.1 0.9,-2 2,-2 h 11 c 0.9,0 1.6,0.6 1.9,1.4 0.3,0.8 0,1.7 -0.7,2.2 C 39,33.8 34,37.5 34,46 c 0,1.1 -0.9,2 -2,2 z"
   id="path984"
   inkscape:connector-curvature="0"
   style="fill:#4f5d73" />
		</g>
		<g
   class="st1"
   id="g990"
   style="opacity:0.2">
			<path
   class="st2"
   d="m 20,21 c -1.1,0 -2,-0.9 -2,-2 v -7 c 0,-1.1 0.9,-2 2,-2 v 0 c 1.1,0 2,0.9 2,2 v 7 c 0,1.1 -0.9,2 -2,2 z"
   id="path988"
   inkscape:connector-curvature="0"
   style="fill:#231f20" />
		</g>
		<g
   class="st1"
   id="g994"
   style="opacity:0.2">
			<path
   class="st2"
   d="m 45,21 c -1.1,0 -2,-0.9 -2,-2 v -7 c 0,-1.1 0.9,-2 2,-2 v 0 c 1.1,0 2,0.9 2,2 v 7 c 0,1.1 -0.9,2 -2,2 z"
   id="path992"
   inkscape:connector-curvature="0"
   style="fill:#231f20" />
		</g>
		<g
   id="g998">
			<path
   class="st6"
   d="m 20,19 c -1.1,0 -2,-0.9 -2,-2 v -7 c 0,-1.1 0.9,-2 2,-2 v 0 c 1.1,0 2,0.9 2,2 v 7 c 0,1.1 -0.9,2 -2,2 z"
   id="path996"
   inkscape:connector-curvature="0"
   style="fill:#e0e0d1" />
		</g>
		<g
   id="g1002">
			<path
   class="st6"
   d="m 45,19 c -1.1,0 -2,-0.9 -2,-2 v -7 c 0,-1.1 0.9,-2 2,-2 v 0 c 1.1,0 2,0.9 2,2 v 7 c 0,1.1 -0.9,2 -2,2 z"
   id="path1000"
   inkscape:connector-curvature="0"
   style="fill:#e0e0d1" />
		</g>
	</g>
</g>
<g
   id="Layer_2"
   transform="translate(96,96)">
</g>
</svg>