<?xml version="1.0" encoding="UTF-8" standalone="no"?>
<!-- Generator: Adobe Illustrator 23.0.1, SVG Export Plug-In . SVG Version: 6.00 Build 0)  -->

<svg
   xmlns:ns0="&amp;ns_sfw;"
   xmlns:dc="http://purl.org/dc/elements/1.1/"
   xmlns:cc="http://creativecommons.org/ns#"
   xmlns:rdf="http://www.w3.org/1999/02/22-rdf-syntax-ns#"
   xmlns:svg="http://www.w3.org/2000/svg"
   xmlns="http://www.w3.org/2000/svg"
   xmlns:sodipodi="http://sodipodi.sourceforge.net/DTD/sodipodi-0.dtd"
   xmlns:inkscape="http://www.inkscape.org/namespaces/inkscape"
   version="1.1"
   id="Livello_1"
   x="0px"
   y="0px"
   viewBox="0 0 256 256"
   enable-background="new 0 0 2744.833 2553.333"
   xml:space="preserve"
   sodipodi:docname="microsoft-onenote.svg"
   width="256"
   height="256"
   inkscape:version="0.92.4 (5da689c313, 2019-01-14)"><defs
   id="defs920" /><sodipodi:namedview
   pagecolor="#ffffff"
   bordercolor="#666666"
   borderopacity="1"
   objecttolerance="10"
   gridtolerance="10"
   guidetolerance="10"
   inkscape:pageopacity="0"
   inkscape:pageshadow="2"
   inkscape:window-width="1920"
   inkscape:window-height="1016"
   id="namedview918"
   showgrid="false"
   inkscape:zoom="0.33446479"
   inkscape:cx="1372.4165"
   inkscape:cy="1276.6665"
   inkscape:window-x="0"
   inkscape:window-y="27"
   inkscape:window-maximized="1"
   inkscape:current-layer="Livello_1" />
<metadata
   id="metadata888">
	<ns0:sfw>
		<ns0:slices />
		<ns0:sliceSourceBounds
   bottomLeftOrigin="true"
   height="2553.333"
   width="2744.833"
   x="-1380.333"
   y="-1252.667">
			</ns0:sliceSourceBounds>
	</ns0:sfw>
<rdf:RDF><cc:Work
     rdf:about=""><dc:format>image/svg+xml</dc:format><dc:type
       rdf:resource="http://purl.org/dc/dcmitype/StillImage" /><dc:title></dc:title></cc:Work></rdf:RDF></metadata>








<linearGradient
   id="SVGID_1_"
   gradientUnits="userSpaceOnUse"
   x1="243.96111"
   y1="2072.2598"
   x2="1160.3723"
   y2="485.07349"
   gradientTransform="matrix(1,0,0,-1,0,258.00029)">
	<stop
   offset="0"
   style="stop-color:#8324B3"
   id="stop906" />
	<stop
   offset="0.5"
   style="stop-color:#7A1BAC"
   id="stop908" />
	<stop
   offset="1"
   style="stop-color:#621197"
   id="stop910" />
</linearGradient>

<g
   id="g932"
   transform="matrix(0.09326629,0,0,0.09326629,-1.9528978e-4,223.19373)"><path
     style="fill:#ca64ea"
     inkscape:connector-curvature="0"
     id="path890"
     d="M 2106.5,255.99999 H 755.212 c -64.55,0 -116.879,-52.328 -116.879,-116.879 v 0 -2319.57499 c 0,-64.551 52.329,-116.879 116.879,-116.879 v 0 h 1872.742 c 64.551,0 116.879,52.328 116.879,116.879 0,0 0,0 0,0 V -1659 Z" /><path
     style="fill:#ae4bd5"
     inkscape:connector-curvature="0"
     id="path892"
     d="M 2744.833,-1020.666 2425.666,-829.16601 2106.499,-1020.666 V -1659 h 638.333 v 638.334 z" /><path
     style="fill:#9332bf"
     inkscape:connector-curvature="0"
     id="path894"
     d="m 2744.833,-382.33301 -319.167,191.5 -319.166,-191.5 V -1020.666 h 638.333 z" /><path
     style="fill:#7719aa"
     inkscape:connector-curvature="0"
     id="path896"
     d="m 2106.5,-382.33301 h 638.333 v 518.646 c 0,66.102 -53.586,119.688 -119.688,119.688 H 2106.5 Z" /><path
     style="opacity:0.2"
     inkscape:connector-curvature="0"
     id="path898"
     d="m 1414.994,-1786.666 h -776.66 v 1595.83299 h 776.66 c 64.534,-0.21 116.796,-52.473 117.006,-117.006 V -1669.66 c -0.21,-64.533 -52.473,-116.796 -117.006,-117.006 z"
     enable-background="new    " /><path
     style="opacity:0.2"
     inkscape:connector-curvature="0"
     id="path900"
     d="M 1351.16,-1722.833 H 638.333 v 1595.83299 h 712.827 c 64.534,-0.21 116.796,-52.473 117.006,-117.006 V -1605.826 c -0.209,-64.534 -52.472,-116.797 -117.006,-117.007 z"
     enable-background="new    " /><path
     style="opacity:0.5"
     inkscape:connector-curvature="0"
     id="path902"
     d="M 1351.16,-1722.833 H 638.333 v 1468.16699 h 712.827 c 64.534,-0.21 116.796,-52.473 117.006,-117.006 V -1605.826 c -0.209,-64.534 -52.472,-116.797 -117.006,-117.007 z"
     enable-background="new    " /><path
     style="opacity:0.5"
     inkscape:connector-curvature="0"
     id="path904"
     d="M 1287.327,-1722.833 H 638.333 v 1468.16699 h 648.993 c 64.534,-0.21 116.796,-52.473 117.007,-117.006 V -1605.826 c -0.21,-64.534 -52.473,-116.797 -117.006,-117.007 z"
     enable-background="new    " /><path
     style="fill:url(#SVGID_1_)"
     inkscape:connector-curvature="0"
     id="path913"
     d="m 117.007,-1722.833 h 1170.32 c 64.621,0 117.007,52.386 117.007,117.007 v 1170.31999 c 0,64.621 -52.386,117.007 -117.007,117.007 H 117.007 C 52.386,-318.50001 0,-370.88501 0,-435.50601 V -1605.826 c 0,-64.621 52.386,-117.007 117.007,-117.007 z" /><path
     style="fill:#ffffff"
     inkscape:connector-curvature="0"
     id="path915"
     d="m 384.66,-1400.985 h 158.626 l 311.698,504.28299 c 14.171,22.597 24.81,40.789 31.917,54.577 h 2.043 c -3.856,-34.327 -5.391,-68.876 -4.596,-103.41 V -1400.985 h 135.327 v 760.63799 H 871.197 L 547.817,-1158.61 c -10.953,-17.099 -20.598,-35.003 -28.853,-53.556 h -2.553 c 3.26,37.74 4.602,75.62 4.021,113.496 v 458.32299 H 384.66 Z" /></g>
</svg>