<?xml version="1.0" encoding="UTF-8" standalone="no"?>
<!-- Generator: Adobe Illustrator 23.0.1, SVG Export Plug-In . SVG Version: 6.00 Build 0)  -->

<svg
   xmlns:ns0="&amp;ns_sfw;"
   xmlns:dc="http://purl.org/dc/elements/1.1/"
   xmlns:cc="http://creativecommons.org/ns#"
   xmlns:rdf="http://www.w3.org/1999/02/22-rdf-syntax-ns#"
   xmlns:svg="http://www.w3.org/2000/svg"
   xmlns="http://www.w3.org/2000/svg"
   xmlns:sodipodi="http://sodipodi.sourceforge.net/DTD/sodipodi-0.dtd"
   xmlns:inkscape="http://www.inkscape.org/namespaces/inkscape"
   version="1.1"
   id="Livello_1"
   x="0px"
   y="0px"
   viewBox="0 0 256.00001 256"
   enable-background="new 0 0 1919.95 1786"
   xml:space="preserve"
   sodipodi:docname="microsoft-power-point.svg"
   width="256"
   height="256"
   inkscape:version="0.92.4 (5da689c313, 2019-01-14)"><defs
   id="defs988" /><sodipodi:namedview
   pagecolor="#ffffff"
   bordercolor="#666666"
   borderopacity="1"
   objecttolerance="10"
   gridtolerance="10"
   guidetolerance="10"
   inkscape:pageopacity="0"
   inkscape:pageshadow="2"
   inkscape:window-width="1920"
   inkscape:window-height="1016"
   id="namedview986"
   showgrid="false"
   inkscape:zoom="0.49328108"
   inkscape:cx="959.97498"
   inkscape:cy="893"
   inkscape:window-x="0"
   inkscape:window-y="27"
   inkscape:window-maximized="1"
   inkscape:current-layer="Livello_1" />
<metadata
   id="metadata958">
	<ns0:sfw>
		<ns0:slices />
		<ns0:sliceSourceBounds
   bottomLeftOrigin="true"
   height="1786"
   width="1919.95"
   x="-936.475"
   y="-869" />
	</ns0:sfw>
<rdf:RDF><cc:Work
     rdf:about=""><dc:format>image/svg+xml</dc:format><dc:type
       rdf:resource="http://purl.org/dc/dcmitype/StillImage" /><dc:title></dc:title></cc:Work></rdf:RDF></metadata>







<linearGradient
   id="SVGID_1_"
   gradientUnits="userSpaceOnUse"
   x1="170.6454"
   y1="1450.1008"
   x2="811.65472"
   y2="339.8992"
   gradientTransform="matrix(1,0,0,-1,0,1788)">
	<stop
   offset="0"
   style="stop-color:#CA4C28"
   id="stop974" />
	<stop
   offset="0.5"
   style="stop-color:#C5401E"
   id="stop976" />
	<stop
   offset="1"
   style="stop-color:#B62F14"
   id="stop978" />
</linearGradient>

<g
   id="g999"
   transform="matrix(0.13333707,0,0,0.13333707,-2.5377325e-4,8.9299965)"><path
     id="path960"
     d="M 1160.9,982.3 1026.95,0 h -10.002 C 529.872,1.422 135.372,395.922 133.95,882.998 V 893 Z"
     inkscape:connector-curvature="0"
     style="fill:#ed6c47" /><path
     id="path962"
     d="m 1036.952,0 h -10.002 v 893 l 446.5,178.6 446.5,-178.6 V 882.998 C 1918.528,395.922 1524.028,1.422 1036.952,0 Z"
     inkscape:connector-curvature="0"
     style="fill:#ff8f6b" /><path
     id="path964"
     d="m 1919.95,893 v 9.823 c -1.398,487.185 -395.992,881.779 -883.177,883.177 h -19.646 C 529.942,1784.602 135.348,1390.008 133.95,902.823 V 893 Z"
     inkscape:connector-curvature="0"
     style="fill:#d35230" /><path
     id="path966"
     d="m 1071.6,438.909 v 952.831 c -0.222,33.109 -20.286,62.852 -50.901,75.458 -9.748,4.123 -20.224,6.249 -30.809,6.251 H 344.698 c -12.502,-14.288 -24.557,-29.469 -35.72,-44.65 C 195.223,1277.05 133.802,1092.475 133.95,902.822 v -19.646 c -0.261,-171.062 49.733,-338.433 143.773,-481.327 9.823,-15.181 20.092,-30.362 31.255,-44.65 H 989.89 c 44.986,0.341 81.37,36.725 81.71,81.71 z"
     enable-background="new    "
     inkscape:connector-curvature="0"
     style="opacity:0.1" /><path
     id="path968"
     d="m 1026.95,483.56 v 952.831 c 0,10.584 -2.128,21.061 -6.251,30.808 -12.606,30.615 -42.35,50.679 -75.459,50.901 H 385.329 c -14.127,-14.342 -27.682,-29.237 -40.632,-44.65 -12.502,-14.288 -24.557,-29.469 -35.72,-44.65 C 195.222,1277.051 133.801,1092.475 133.949,902.823 V 883.177 C 133.688,712.115 183.682,544.744 277.722,401.85 H 945.24 c 44.986,0.34 81.37,36.724 81.71,81.71 z"
     enable-background="new    "
     inkscape:connector-curvature="0"
     style="opacity:0.2" /><path
     id="path970"
     d="m 1026.95,483.56 v 863.531 c -0.34,44.985 -36.724,81.369 -81.709,81.71 H 308.978 C 195.223,1277.052 133.802,1092.476 133.95,902.824 V 883.178 C 133.689,712.116 183.683,544.745 277.723,401.851 H 945.24 c 44.986,0.339 81.37,36.723 81.71,81.709 z"
     enable-background="new    "
     inkscape:connector-curvature="0"
     style="opacity:0.2" /><path
     id="path972"
     d="m 982.3,483.56 v 863.531 c -0.34,44.985 -36.724,81.369 -81.709,81.71 H 308.978 C 195.223,1277.052 133.802,1092.476 133.95,902.824 V 883.178 C 133.689,712.116 183.683,544.745 277.723,401.851 H 900.59 c 44.986,0.339 81.37,36.723 81.71,81.709 z"
     enable-background="new    "
     inkscape:connector-curvature="0"
     style="opacity:0.2" /><path
     id="path981"
     d="m 81.843,401.85 h 818.613 c 45.201,0 81.843,36.643 81.843,81.843 v 818.613 c 0,45.201 -36.643,81.844 -81.843,81.844 H 81.843 C 36.643,1384.15 0,1347.507 0,1302.307 V 483.693 c 0,-45.2 36.643,-81.843 81.843,-81.843 z"
     style="fill:url(#SVGID_1_)"
     inkscape:connector-curvature="0" /><path
     id="path983"
     d="m 500.08,620.144 c 53.289,-3.596 106.119,11.883 149.042,43.668 35.8,31.961 54.929,78.599 51.883,126.493 0.585,33.294 -8.287,66.071 -25.584,94.524 -17.512,27.964 -42.742,50.263 -72.646,64.207 -34.187,15.9 -71.564,23.751 -109.259,22.95 H 389.973 v 192.441 H 283.929 V 620.144 Z M 389.884,888.848 h 91.265 c 28.933,2.125 57.641,-6.438 80.683,-24.066 19.058,-18.282 29.047,-44.063 27.281,-70.413 0,-59.98 -34.857,-89.97 -104.57,-89.97 h -94.658 v 184.449 z"
     inkscape:connector-curvature="0"
     style="fill:#ffffff" /></g>
</svg>