<?xml version="1.0" encoding="UTF-8" standalone="no"?>
<!-- Generator: Adobe Illustrator 23.0.1, SVG Export Plug-In . SVG Version: 6.00 Build 0)  -->

<svg
   xmlns:ns="&amp;ns_sfw;"
   xmlns:dc="http://purl.org/dc/elements/1.1/"
   xmlns:cc="http://creativecommons.org/ns#"
   xmlns:rdf="http://www.w3.org/1999/02/22-rdf-syntax-ns#"
   xmlns:svg="http://www.w3.org/2000/svg"
   xmlns="http://www.w3.org/2000/svg"
   xmlns:sodipodi="http://sodipodi.sourceforge.net/DTD/sodipodi-0.dtd"
   xmlns:inkscape="http://www.inkscape.org/namespaces/inkscape"
   version="1.1"
   id="Livello_1"
   x="0px"
   y="0px"
   viewBox="0 0 256 256"
   enable-background="new 0 0 1881.25 1750"
   xml:space="preserve"
   sodipodi:docname="microsoft-word.svg"
   width="256"
   height="256"
   inkscape:version="0.92.4 (5da689c313, 2019-01-14)"><defs
   id="defs991" /><sodipodi:namedview
   pagecolor="#ffffff"
   bordercolor="#666666"
   borderopacity="1"
   objecttolerance="10"
   gridtolerance="10"
   guidetolerance="10"
   inkscape:pageopacity="0"
   inkscape:pageshadow="2"
   inkscape:window-width="1920"
   inkscape:window-height="1016"
   id="namedview989"
   showgrid="false"
   inkscape:zoom="0.30342857"
   inkscape:cx="1047.5282"
   inkscape:cy="1127.1186"
   inkscape:window-x="0"
   inkscape:window-y="27"
   inkscape:window-maximized="1"
   inkscape:current-layer="Livello_1" />
<metadata
   id="metadata959">
	<ns:sfw>
		<ns:slices />
		<ns:sliceSourceBounds
   bottomLeftOrigin="true"
   height="1750"
   width="1881.25"
   x="-938.5"
   y="-851" />
	</ns:sfw>
<rdf:RDF><cc:Work
     rdf:about=""><dc:format>image/svg+xml</dc:format><dc:type
       rdf:resource="http://purl.org/dc/dcmitype/StillImage" /><dc:title></dc:title></cc:Work></rdf:RDF></metadata>








<linearGradient
   id="SVGID_1_"
   gradientUnits="userSpaceOnUse"
   x1="167.2057"
   y1="1420.9117"
   x2="795.29431"
   y2="333.08829"
   gradientTransform="matrix(1,0,0,-1,0,1752)">
	<stop
   offset="0"
   style="stop-color:#2368C4"
   id="stop977" />
	<stop
   offset="0.5"
   style="stop-color:#1A5DBE"
   id="stop979" />
	<stop
   offset="1"
   style="stop-color:#1146AC"
   id="stop981" />
</linearGradient>

<g
   id="g2455"
   transform="matrix(0.13607943,0,0,0.13607943,2.1811654e-4,8.9304988)"><path
     id="path961"
     d="M 1801.056,0 H 517.694 C 473.404,0 437.5,35.904 437.5,80.194 c 0,0 0,0 0,0 V 437.5 l 743.75,218.75 700,-218.75 V 80.194 C 1881.25,35.904 1845.346,0 1801.056,0 Z"
     inkscape:connector-curvature="0"
     style="fill:#41a5ee" /><path
     id="path963"
     d="M 1881.25,437.5 H 437.5 V 875 l 743.75,131.25 700,-131.25 z"
     inkscape:connector-curvature="0"
     style="fill:#2b7cd3" /><path
     id="path965"
     d="m 437.5,875 v 437.5 l 700,87.5 743.75,-87.5 V 875 Z"
     inkscape:connector-curvature="0"
     style="fill:#185abd" /><path
     id="path967"
     d="m 517.694,1750 h 1283.363 c 44.29,0 80.194,-35.904 80.194,-80.194 v 0 V 1312.5 H 437.5 v 357.306 c 0,44.29 35.904,80.194 80.194,80.194 z"
     inkscape:connector-curvature="0"
     style="fill:#103f91" /><path
     id="path969"
     d="M 969.806,350 H 437.5 v 1093.75 h 532.306 c 44.23,-0.144 80.05,-35.964 80.194,-80.194 V 430.194 c -0.144,-44.23 -35.964,-80.05 -80.194,-80.194 z"
     enable-background="new    "
     inkscape:connector-curvature="0"
     style="opacity:0.1" /><path
     id="path971"
     d="M 926.056,393.75 H 437.5 V 1487.5 h 488.556 c 44.23,-0.144 80.05,-35.964 80.194,-80.194 V 473.944 c -0.144,-44.23 -35.964,-80.05 -80.194,-80.194 z"
     enable-background="new    "
     inkscape:connector-curvature="0"
     style="opacity:0.2" /><path
     id="path973"
     d="M 926.056,393.75 H 437.5 V 1400 h 488.556 c 44.23,-0.144 80.05,-35.964 80.194,-80.194 V 473.944 c -0.144,-44.23 -35.964,-80.05 -80.194,-80.194 z"
     enable-background="new    "
     inkscape:connector-curvature="0"
     style="opacity:0.2" /><path
     id="path975"
     d="M 882.306,393.75 H 437.5 V 1400 h 444.806 c 44.23,-0.144 80.05,-35.964 80.194,-80.194 V 473.944 c -0.144,-44.23 -35.964,-80.05 -80.194,-80.194 z"
     enable-background="new    "
     inkscape:connector-curvature="0"
     style="opacity:0.2" /><path
     id="path984"
     d="m 80.194,393.75 h 802.112 c 44.29,0 80.194,35.904 80.194,80.194 v 802.113 c 0,44.29 -35.904,80.194 -80.194,80.194 H 80.194 C 35.904,1356.251 0,1320.347 0,1276.057 V 473.944 C 0,429.654 35.904,393.75 80.194,393.75 Z"
     style="fill:url(#SVGID_1_)"
     inkscape:connector-curvature="0" /><path
     id="path986"
     d="m 329.088,1008.788 c 1.575,12.381 2.625,23.144 3.106,32.375 h 1.837 c 0.7,-8.75 2.158,-19.294 4.375,-31.631 2.217,-12.338 4.215,-22.765 5.994,-31.281 l 84.35,-363.913 h 109.069 l 87.5,358.444 c 5.084,22.288 8.723,44.881 10.894,67.637 h 1.444 c 1.631,-22.047 4.671,-43.966 9.1,-65.625 l 69.781,-360.631 h 99.269 l -122.588,521.5 H 577.238 L 494.113,790.3 c -2.406,-9.931 -5.162,-22.925 -8.181,-38.894 -3.019,-15.969 -4.9,-27.65 -5.644,-35 h -1.444 c -0.962,8.487 -2.844,21.088 -5.644,37.8 -2.8,16.713 -5.046,29.079 -6.738,37.1 l -78.138,344.269 H 270.374 L 147.131,614.337 h 101.062 l 75.994,364.656 c 1.707,7.482 3.326,17.457 4.901,29.795 z"
     inkscape:connector-curvature="0"
     style="fill:#ffffff" /></g>
</svg>