<?xml version="1.0" encoding="UTF-8" standalone="no"?>
<!-- Generator: Adobe Illustrator 23.0.1, SVG Export Plug-In . SVG Version: 6.00 Build 0)  -->

<svg
   xmlns:ns="&amp;ns_sfw;"
   xmlns:dc="http://purl.org/dc/elements/1.1/"
   xmlns:cc="http://creativecommons.org/ns#"
   xmlns:rdf="http://www.w3.org/1999/02/22-rdf-syntax-ns#"
   xmlns:svg="http://www.w3.org/2000/svg"
   xmlns="http://www.w3.org/2000/svg"
   xmlns:sodipodi="http://sodipodi.sourceforge.net/DTD/sodipodi-0.dtd"
   xmlns:inkscape="http://www.inkscape.org/namespaces/inkscape"
   version="1.1"
   id="Livello_1"
   x="0px"
   y="0px"
   viewBox="0 0 256 256"
   enable-background="new 0 0 2289.75 2130"
   xml:space="preserve"
   sodipodi:docname="microsoft-excel.svg"
   width="256"
   height="256"
   inkscape:version="0.92.4 (5da689c313, 2019-01-14)"><defs
   id="defs957" /><sodipodi:namedview
   pagecolor="#ffffff"
   bordercolor="#666666"
   borderopacity="1"
   objecttolerance="10"
   gridtolerance="10"
   guidetolerance="10"
   inkscape:pageopacity="0"
   inkscape:pageshadow="2"
   inkscape:window-width="1920"
   inkscape:window-height="1016"
   id="namedview955"
   showgrid="false"
   inkscape:zoom="1.353169"
   inkscape:cx="349.69147"
   inkscape:cy="156.5461"
   inkscape:window-x="0"
   inkscape:window-y="27"
   inkscape:window-maximized="1"
   inkscape:current-layer="Livello_1" />
<metadata
   id="metadata923">
	<ns:sfw>
		<ns:slices />
		<ns:sliceSourceBounds
   bottomLeftOrigin="true"
   height="2130"
   width="2289.75"
   x="-1147.5"
   y="-1041" />
	</ns:sfw>
<rdf:RDF><cc:Work
     rdf:about=""><dc:format>image/svg+xml</dc:format><dc:type
       rdf:resource="http://purl.org/dc/dcmitype/StillImage" /><dc:title></dc:title></cc:Work></rdf:RDF></metadata>







<linearGradient
   id="SVGID_1_"
   gradientUnits="userSpaceOnUse"
   x1="203.5132"
   y1="1729.0183"
   x2="967.98682"
   y2="404.98169"
   gradientTransform="matrix(1,0,0,-1,0,2132)">
	<stop
   offset="0"
   style="stop-color:#18884F"
   id="stop939" />
	<stop
   offset="0.5"
   style="stop-color:#117E43"
   id="stop941" />
	<stop
   offset="1"
   style="stop-color:#0B6631"
   id="stop943" />
</linearGradient>



<g
   id="g2443"
   transform="matrix(0.11180282,0,0,0.11180282,-2.535475e-4,8.9299967)"><path
     id="path925"
     d="M 1437.75,1011.75 532.5,852 v 1180.393 c 0,53.907 43.7,97.607 97.607,97.607 v 0 h 1562.036 c 53.907,0 97.607,-43.7 97.607,-97.607 v 0 -434.893 z"
     inkscape:connector-curvature="0"
     style="fill:#185c37" /><path
     id="path927"
     d="M 1437.75,0 H 630.107 C 576.2,0 532.5,43.7 532.5,97.607 c 0,0 0,0 0,0 V 532.5 L 1437.75,1065 1917,1224.75 2289.75,1065 V 532.5 Z"
     inkscape:connector-curvature="0"
     style="fill:#21a366" /><path
     id="path929"
     d="m 532.5,532.5 h 905.25 V 1065 H 532.5 Z"
     inkscape:connector-curvature="0"
     style="fill:#107c41" /><path
     id="path931"
     d="M 1180.393,426 H 532.5 v 1331.25 h 647.893 c 53.834,-0.175 97.432,-43.773 97.607,-97.607 V 523.607 c -0.175,-53.834 -43.773,-97.432 -97.607,-97.607 z"
     enable-background="new    "
     inkscape:connector-curvature="0"
     style="opacity:0.1" /><path
     id="path933"
     d="M 1127.143,479.25 H 532.5 V 1810.5 h 594.643 c 53.834,-0.175 97.432,-43.773 97.607,-97.607 V 576.857 c -0.175,-53.834 -43.773,-97.432 -97.607,-97.607 z"
     enable-background="new    "
     inkscape:connector-curvature="0"
     style="opacity:0.2" /><path
     id="path935"
     d="M 1127.143,479.25 H 532.5 V 1704 h 594.643 c 53.834,-0.175 97.432,-43.773 97.607,-97.607 V 576.857 c -0.175,-53.834 -43.773,-97.432 -97.607,-97.607 z"
     enable-background="new    "
     inkscape:connector-curvature="0"
     style="opacity:0.2" /><path
     id="path937"
     d="M 1073.893,479.25 H 532.5 V 1704 h 541.393 c 53.834,-0.175 97.432,-43.773 97.607,-97.607 V 576.857 c -0.175,-53.834 -43.773,-97.432 -97.607,-97.607 z"
     enable-background="new    "
     inkscape:connector-curvature="0"
     style="opacity:0.2" /><path
     id="path946"
     d="m 97.607,479.25 h 976.285 c 53.907,0 97.607,43.7 97.607,97.607 v 976.285 c 0,53.907 -43.7,97.607 -97.607,97.607 H 97.607 C 43.7,1650.75 0,1607.05 0,1553.143 V 576.857 C 0,522.95 43.7,479.25 97.607,479.25 Z"
     style="fill:url(#SVGID_1_)"
     inkscape:connector-curvature="0" /><path
     id="path948"
     d="M 302.3,1382.264 507.632,1064.095 319.5,747.683 h 151.336 l 102.666,202.35 c 9.479,19.223 15.975,33.494 19.49,42.919 h 1.331 c 6.745,-15.336 13.845,-30.228 21.3,-44.677 L 725.371,747.79 H 864.3 L 671.375,1062.338 869.2,1382.263 H 721.378 L 602.79,1160.158 c -5.586,-9.45 -10.326,-19.376 -14.164,-29.66 h -1.757 c -3.474,10.075 -8.083,19.722 -13.739,28.755 l -122.102,223.011 z"
     inkscape:connector-curvature="0"
     style="fill:#ffffff" /><path
     id="path950"
     d="M 2192.143,0 H 1437.75 v 532.5 h 852 V 97.607 C 2289.75,43.7 2246.05,0 2192.143,0 Z"
     inkscape:connector-curvature="0"
     style="fill:#33c481" /><path
     id="path952"
     d="m 1437.75,1065 h 852 v 532.5 h -852 z"
     inkscape:connector-curvature="0"
     style="fill:#107c41" /></g>
</svg>