<?xml version="1.0" encoding="UTF-8" standalone="no"?>
<!-- Generator: Adobe Illustrator 23.0.1, SVG Export Plug-In . SVG Version: 6.00 Build 0)  -->

<svg
   xmlns:ns0="&amp;ns_sfw;"
   xmlns:dc="http://purl.org/dc/elements/1.1/"
   xmlns:cc="http://creativecommons.org/ns#"
   xmlns:rdf="http://www.w3.org/1999/02/22-rdf-syntax-ns#"
   xmlns:svg="http://www.w3.org/2000/svg"
   xmlns="http://www.w3.org/2000/svg"
   xmlns:sodipodi="http://sodipodi.sourceforge.net/DTD/sodipodi-0.dtd"
   xmlns:inkscape="http://www.inkscape.org/namespaces/inkscape"
   version="1.1"
   id="Livello_1"
   x="0px"
   y="0px"
   viewBox="0 0 256.00001 256.00001"
   enable-background="new 0 0 1831.085 1703.335"
   xml:space="preserve"
   sodipodi:docname="microsoft-outlook.svg"
   width="256"
   height="256"
   inkscape:version="0.92.4 (5da689c313, 2019-01-14)"><defs
   id="defs974" /><sodipodi:namedview
   pagecolor="#ffffff"
   bordercolor="#666666"
   borderopacity="1"
   objecttolerance="10"
   gridtolerance="10"
   guidetolerance="10"
   inkscape:pageopacity="0"
   inkscape:pageshadow="2"
   inkscape:window-width="1920"
   inkscape:window-height="1016"
   id="namedview972"
   showgrid="false"
   inkscape:zoom="0.50136938"
   inkscape:cx="915.54248"
   inkscape:cy="851.66748"
   inkscape:window-x="0"
   inkscape:window-y="27"
   inkscape:window-maximized="1"
   inkscape:current-layer="Livello_1" />
<metadata
   id="metadata915">
	<ns0:sfw>
		<ns0:slices />
		<ns0:sliceSourceBounds
   bottomLeftOrigin="true"
   height="1703.335"
   width="1831.085"
   x="-912.833"
   y="-827.668" />
	</ns0:sfw>
<rdf:RDF><cc:Work
     rdf:about=""><dc:format>image/svg+xml</dc:format><dc:type
       rdf:resource="http://purl.org/dc/dcmitype/StillImage" /><dc:title></dc:title></cc:Work></rdf:RDF></metadata>








<linearGradient
   id="SVGID_1_"
   gradientUnits="userSpaceOnUse"
   x1="1128.4584"
   y1="811.08331"
   x2="1128.4584"
   y2="1.9982001"
   gradientTransform="matrix(1,0,0,-1,0,1705.3334)">
	<stop
   offset="0"
   style="stop-color:#35B8F1"
   id="stop933" />
	<stop
   offset="1"
   style="stop-color:#28A8EA"
   id="stop935" />
</linearGradient>










<linearGradient
   id="SVGID_2_"
   gradientUnits="userSpaceOnUse"
   x1="162.7469"
   y1="1383.0741"
   x2="774.08643"
   y2="324.25919"
   gradientTransform="matrix(1,0,0,-1,0,1705.3334)">
	<stop
   offset="0"
   style="stop-color:#1784D9"
   id="stop958" />
	<stop
   offset="0.5"
   style="stop-color:#107AD5"
   id="stop960" />
	<stop
   offset="1"
   style="stop-color:#0A63C9"
   id="stop962" />
</linearGradient>


<g
   id="g997"
   transform="matrix(0.13980802,0,0,0.13980802,-1.8433586e-4,8.9299966)"><path
     id="path917"
     d="m 1831.083,894.25 c 0.1,-14.318 -7.298,-27.644 -19.503,-35.131 h -0.213 l -0.767,-0.426 -634.492,-375.585 c -2.74,-1.851 -5.583,-3.543 -8.517,-5.067 -24.498,-12.639 -53.599,-12.639 -78.098,0 -2.934,1.525 -5.777,3.216 -8.517,5.067 l -634.49,375.585 -0.766,0.426 c -19.392,12.059 -25.337,37.556 -13.278,56.948 3.553,5.714 8.447,10.474 14.257,13.868 l 634.492,375.585 c 2.749,1.835 5.592,3.527 8.517,5.068 24.498,12.639 53.599,12.639 78.098,0 2.925,-1.541 5.767,-3.232 8.517,-5.068 l 634.492,-375.585 c 12.675,-7.39 20.413,-21.012 20.268,-35.685 z"
     inkscape:connector-curvature="0"
     style="fill:#0a2767" /><path
     id="path919"
     d="m 520.453,643.477 h 416.38 v 381.674 H 520.453 Z M 1745.917,255.5 V 80.908 C 1746.917,37.256 1712.365,1.046 1668.714,0 H 588.204 C 544.552,1.046 510,37.256 511,80.908 V 255.5 l 638.75,170.333 z"
     inkscape:connector-curvature="0"
     style="fill:#0364b8" /><path
     id="path921"
     d="M 511,255.5 H 936.833 V 638.75 H 511 Z"
     inkscape:connector-curvature="0"
     style="fill:#0078d4" /><path
     id="path923"
     d="M 1362.667,255.5 H 936.833 V 638.75 L 1362.667,1022 h 383.25 V 638.75 Z"
     inkscape:connector-curvature="0"
     style="fill:#28a8ea" /><path
     id="path925"
     d="m 936.833,638.75 h 425.833 V 1022 H 936.833 Z"
     inkscape:connector-curvature="0"
     style="fill:#0078d4" /><path
     id="path927"
     d="m 936.833,1022 h 425.833 v 383.25 H 936.833 Z"
     inkscape:connector-curvature="0"
     style="fill:#0364b8" /><path
     id="path929"
     d="m 520.453,1025.151 h 416.38 v 346.969 h -416.38 z"
     inkscape:connector-curvature="0"
     style="fill:#14447d" /><path
     id="path931"
     d="m 1362.667,1022 h 383.25 v 383.25 h -383.25 z"
     inkscape:connector-curvature="0"
     style="fill:#0078d4" /><path
     id="path938"
     d="m 1811.58,927.593 -0.809,0.426 -634.492,356.848 c -2.768,1.703 -5.578,3.321 -8.517,4.769 -10.777,5.132 -22.481,8.029 -34.407,8.517 l -34.663,-20.27 c -2.929,-1.47 -5.773,-3.105 -8.517,-4.897 L 447.167,906.003 h -0.298 L 425.833,894.25 v 722.384 c 0.328,48.196 39.653,87.006 87.849,86.7 h 1230.914 c 0.724,0 1.363,-0.341 2.129,-0.341 10.18,-0.651 20.216,-2.745 29.808,-6.217 4.145,-1.756 8.146,-3.835 11.966,-6.217 2.853,-1.618 7.75,-5.152 7.75,-5.152 21.814,-16.142 34.726,-41.635 34.833,-68.772 V 894.25 c -0.014,13.817 -7.466,26.557 -19.502,33.343 z"
     inkscape:connector-curvature="0"
     style="fill:url(#SVGID_1_)" /><path
     id="path940"
     d="m 1797.017,891.397 v 44.287 l -663.448,456.791 -686.87,-486.174 c 0,-0.235 -0.191,-0.426 -0.426,-0.426 v 0 L 383.25,867.976 v -31.938 l 25.976,-0.426 54.932,31.512 1.277,0.426 4.684,2.981 c 0,0 645.563,368.346 647.267,369.197 l 24.698,14.478 c 2.129,-0.852 4.258,-1.703 6.813,-2.555 1.278,-0.852 640.879,-360.681 640.879,-360.681 z"
     enable-background="new    "
     inkscape:connector-curvature="0"
     style="opacity:0.5;fill:#0a2767" /><path
     id="path942"
     d="m 1811.58,927.593 -0.809,0.468 -634.492,356.848 c -2.768,1.703 -5.578,3.321 -8.517,4.769 -24.641,12.038 -53.457,12.038 -78.098,0 -2.918,-1.445 -5.76,-3.037 -8.517,-4.769 l -634.49,-356.848 -0.766,-0.468 c -12.25,-6.642 -19.93,-19.409 -20.057,-33.343 v 722.384 c 0.305,48.188 39.616,87.004 87.803,86.7 0.001,0 0.002,0 0.004,0 h 1229.636 c 48.188,0.307 87.5,-38.509 87.807,-86.696 0,-10e-4 0,0 0,0 V 894.25 c -0.016,13.817 -7.468,26.557 -19.504,33.343 z"
     inkscape:connector-curvature="0"
     style="fill:#1490df" /><path
     id="path944"
     d="m 1185.52,1279.629 -9.496,5.323 c -2.752,1.752 -5.595,3.359 -8.517,4.812 -10.462,5.135 -21.838,8.146 -33.47,8.857 l 241.405,285.479 421.107,101.476 c 11.539,-8.716 20.717,-20.178 26.7,-33.343 z"
     enable-background="new    "
     inkscape:connector-curvature="0"
     style="opacity:0.1" /><path
     id="path946"
     d="m 1228.529,1255.442 -52.505,29.51 c -2.752,1.752 -5.595,3.359 -8.517,4.812 -10.462,5.135 -21.838,8.146 -33.47,8.857 l 113.101,311.838 549.538,74.989 c 21.649,-16.254 34.394,-41.743 34.407,-68.815 v -9.326 z"
     enable-background="new    "
     inkscape:connector-curvature="0"
     style="opacity:0.05" /><path
     id="path948"
     d="m 514.833,1703.333 h 1228.316 c 18.901,0.096 37.335,-5.874 52.59,-17.033 L 1098.65,1277.969 c -2.929,-1.47 -5.773,-3.105 -8.517,-4.897 L 447.125,906.088 h -0.298 L 425.834,894.25 v 719.914 c -0.048,49.2 39.798,89.122 88.999,89.169 -10e-4,0 -10e-4,0 0,0 z"
     inkscape:connector-curvature="0"
     style="fill:#28a8ea" /><path
     id="path950"
     d="m 1022,418.722 v 908.303 c -0.076,31.846 -19.44,60.471 -48.971,72.392 -9.148,3.931 -19,5.96 -28.957,5.962 H 425.833 V 383.25 H 511 v -42.583 h 433.073 c 43.019,0.163 77.834,35.035 77.927,78.055 z"
     enable-background="new    "
     inkscape:connector-curvature="0"
     style="opacity:0.1" /><path
     id="path952"
     d="m 979.417,461.305 v 908.302 c 0.107,10.287 -2.074,20.469 -6.388,29.808 -11.826,29.149 -40.083,48.273 -71.54,48.417 H 425.833 V 383.25 h 475.656 c 12.356,-0.124 24.533,2.958 35.344,8.943 26.104,13.151 42.574,39.883 42.584,69.112 z"
     enable-background="new    "
     inkscape:connector-curvature="0"
     style="opacity:0.2" /><path
     id="path954"
     d="m 979.417,461.305 v 823.136 c -0.208,43 -34.928,77.853 -77.927,78.225 H 425.833 V 383.25 h 475.656 c 12.356,-0.124 24.533,2.958 35.344,8.943 26.104,13.151 42.574,39.883 42.584,69.112 z"
     enable-background="new    "
     inkscape:connector-curvature="0"
     style="opacity:0.2" /><path
     id="path956"
     d="m 936.833,461.305 v 823.136 c -0.046,43.067 -34.861,78.015 -77.927,78.225 H 425.833 V 383.25 h 433.072 c 43.062,0.023 77.951,34.951 77.927,78.013 10e-4,0.014 10e-4,0.028 10e-4,0.042 z"
     enable-background="new    "
     inkscape:connector-curvature="0"
     style="opacity:0.2" /><path
     id="path965"
     d="m 78.055,383.25 h 780.723 c 43.109,0 78.055,34.947 78.055,78.055 v 780.723 c 0,43.109 -34.946,78.055 -78.055,78.055 H 78.055 C 34.946,1320.083 0,1285.136 0,1242.028 V 461.305 C 0,418.197 34.947,383.25 78.055,383.25 Z"
     inkscape:connector-curvature="0"
     style="fill:url(#SVGID_2_)" /><path
     id="path967"
     d="m 243.96,710.631 c 19.238,-40.988 50.29,-75.289 89.17,-98.495 43.057,-24.651 92.081,-36.94 141.675,-35.515 45.965,-0.997 91.321,10.655 131.114,33.683 37.414,22.312 67.547,55.004 86.742,94.109 20.904,43.09 31.322,90.512 30.405,138.396 1.013,50.043 -9.706,99.628 -31.299,144.783 -19.652,40.503 -50.741,74.36 -89.425,97.388 -41.327,23.734 -88.367,35.692 -136.011,34.578 -46.947,1.133 -93.303,-10.651 -134.01,-34.067 -37.738,-22.341 -68.249,-55.07 -87.892,-94.28 -21.028,-42.467 -31.57,-89.355 -30.745,-136.735 -0.876,-49.617 9.474,-98.79 30.276,-143.845 z m 95.046,231.227 c 10.257,25.912 27.651,48.385 50.163,64.812 22.93,16.026 50.387,24.294 78.353,23.591 29.783,1.178 59.14,-7.372 83.634,-24.358 22.227,-16.375 39.164,-38.909 48.715,-64.812 10.677,-28.928 15.946,-59.572 15.543,-90.404 0.33,-31.127 -4.623,-62.084 -14.649,-91.554 -8.855,-26.607 -25.246,-50.069 -47.182,-67.537 -23.88,-17.79 -53.158,-26.813 -82.91,-25.55 -28.572,-0.74 -56.644,7.593 -80.184,23.804 -22.893,16.496 -40.617,39.168 -51.1,65.365 -23.255,60.049 -23.376,126.595 -0.341,186.728 z"
     inkscape:connector-curvature="0"
     style="fill:#ffffff" /><path
     id="path969"
     d="m 1362.667,255.5 h 383.25 v 383.25 h -383.25 z"
     inkscape:connector-curvature="0"
     style="fill:#50d9ff" /></g>
</svg>